<svg viewBox="0 0 490 328" fill="none" xmlns="http://www.w3.org/2000/svg">
<path d="M344.167 73.5816C354.93 79.426 365.237 86.2558 370.87 93.0847C385.832 111.223 393.927 134.143 393.682 157.68C393.437 181.217 384.867 203.805 369.53 221.337C354.193 238.869 333.109 250.18 310.114 253.214C293.737 255.376 274.194 250.263 257.038 242.197L274.276 242.878L274.79 242.898L275.296 242.811L292.796 239.811L293.139 239.753L293.47 239.646L308.97 234.646L309.525 234.467L310.022 234.162L325.522 224.662L325.765 224.513L325.988 224.338L332.988 218.838L333.286 218.604L333.545 218.327L340.545 210.827L340.681 210.68L340.806 210.523L350.306 198.523L350.46 198.328L350.594 198.118L358.594 185.618L359.056 184.896L359.252 184.057L362.752 169.057L362.777 168.949L362.798 168.84L365.798 152.84L365.885 152.377L365.885 151.905L365.885 137.405L365.885 137.142L365.858 136.88L364.358 122.38L364.297 121.795L364.105 121.238L359.105 106.738L359.021 106.495L358.913 106.261L352.929 93.2945L344.167 73.5816Z" stroke="#D6AF57" stroke-width="10"/>
<path d="M327.989 247.787L309.229 231.294" stroke="#D6AF57" stroke-width="10"/>
<path d="M353.785 240.459L328.416 216.851" stroke="#D6AF57" stroke-width="10"/>
<path d="M373.418 220.136L347.259 200.851" stroke="#D6AF57" stroke-width="10"/>
<path d="M390.063 195.622L359.043 178.222" stroke="#D6AF57" stroke-width="10"/>
<path d="M394.012 160.219L365.35 149.348" stroke="#D6AF57" stroke-width="10"/>
<path d="M386.82 123.64L362.059 112.842" stroke="#D6AF57" stroke-width="10"/>
<path d="M188.649 234.297L193.133 233.632C192.215 234.151 191.279 234.674 190.326 235.197C176.966 242.54 161.389 249.557 150.153 250.363C126.465 252.063 102.856 245.152 83.6262 230.867C64.3949 216.582 50.8286 195.878 45.398 172.521C39.9676 149.166 43.0354 124.722 54.0252 103.633C59.2384 93.6295 71.8696 82.1125 83.9136 72.7629C87.4069 70.0512 90.7791 67.5754 93.7964 65.4331L82.9247 79.8389L82.5753 80.3019L82.3412 80.8326L74.8412 97.8326L74.721 98.105L74.634 98.3897L69.134 116.39L68.9468 117.002L68.9201 117.643L67.9201 141.643L67.8911 142.339L68.0538 143.018L71.0538 155.518L71.0757 155.609L71.101 155.699L74.601 168.199L74.6965 168.54L74.8392 168.865L80.3392 181.365L80.4775 181.679L80.6575 181.971L84.6575 188.471L84.7349 188.597L84.8196 188.718L88.3196 193.718L88.4541 193.91L88.6061 194.089L97.1061 204.089L97.281 204.295L97.477 204.481L106.977 213.481L107.268 213.756L107.599 213.982L118.599 221.482L118.878 221.672L119.18 221.823L132.18 228.323L132.55 228.508L132.945 228.63L145.945 232.63L146.264 232.728L146.594 232.783L155.594 234.283L155.755 234.31L155.918 234.326L165.918 235.326L166.166 235.351L166.416 235.351L176.916 235.351L177.143 235.351L177.368 235.33L188.368 234.33L188.509 234.317L188.649 234.297Z" stroke="#D6AF57" stroke-width="10"/>
<path d="M242.48 91.9538C269.762 139.207 255.548 197.907 211.566 223.3C167.584 248.693 109.641 231.653 82.3593 184.399C55.0774 137.146 69.2916 78.4458 113.273 53.0529C157.255 27.66 215.198 44.7001 242.48 91.9538Z" stroke="#D6AF57" stroke-width="10"/>
<mask id="path-10-inside-1_35_81" fill="white">
<path fill-rule="evenodd" clip-rule="evenodd" d="M223.967 221.038C262.622 191.552 273.204 135.169 246.81 89.4538C242.519 82.021 237.494 75.2937 231.896 69.3195C255.741 54.1762 285.661 51.0803 312.107 63.3997C354.79 83.2825 373.752 136.485 353.116 182.751C332.48 229.018 280.749 249.289 238.066 229.406C233.027 227.059 228.319 224.247 223.967 221.038ZM224.489 62.1398C192.857 34.3098 147.4 27.5764 110.773 48.7228C64.1659 75.6316 49.5059 137.495 78.0293 186.899C106.553 236.303 167.458 254.539 214.066 227.63C214.467 227.399 214.866 227.164 215.263 226.927C220.925 231.453 227.183 235.367 233.993 238.539C282.093 260.946 339.485 237.859 362.181 186.974C384.876 136.088 364.281 76.6736 316.181 54.2669C285.605 40.0238 251.275 44.163 224.489 62.1398Z"/>
</mask>
<path fill-rule="evenodd" clip-rule="evenodd" d="M223.967 221.038C262.622 191.552 273.204 135.169 246.81 89.4538C242.519 82.021 237.494 75.2937 231.896 69.3195C255.741 54.1762 285.661 51.0803 312.107 63.3997C354.79 83.2825 373.752 136.485 353.116 182.751C332.48 229.018 280.749 249.289 238.066 229.406C233.027 227.059 228.319 224.247 223.967 221.038ZM224.489 62.1398C192.857 34.3098 147.4 27.5764 110.773 48.7228C64.1659 75.6316 49.5059 137.495 78.0293 186.899C106.553 236.303 167.458 254.539 214.066 227.63C214.467 227.399 214.866 227.164 215.263 226.927C220.925 231.453 227.183 235.367 233.993 238.539C282.093 260.946 339.485 237.859 362.181 186.974C384.876 136.088 364.281 76.6736 316.181 54.2669C285.605 40.0238 251.275 44.163 224.489 62.1398Z" fill="#FFFDFD" fill-opacity="0.01"/>
<path d="M246.81 89.4538L255.47 84.4538L255.47 84.4538L246.81 89.4538ZM223.967 221.038L217.902 213.087L207.303 221.172L218.031 229.085L223.967 221.038ZM231.896 69.3195L226.535 60.878L216.345 67.3492L224.599 76.1573L231.896 69.3195ZM312.107 63.3997L316.33 54.3349L316.33 54.3349L312.107 63.3997ZM353.116 182.751L362.249 186.825L362.249 186.825L353.116 182.751ZM238.066 229.406L233.843 238.471L233.843 238.471L238.066 229.406ZM110.773 48.7228L115.773 57.383L110.773 48.7228ZM224.489 62.1398L217.883 69.6476L223.666 74.7352L230.061 70.4431L224.489 62.1398ZM78.0293 186.899L69.369 191.899L69.369 191.899L78.0293 186.899ZM214.066 227.63L219.066 236.291L219.066 236.291L214.066 227.63ZM215.263 226.927L221.507 219.116L216.09 214.786L210.135 218.342L215.263 226.927ZM233.993 238.539L238.215 229.474L238.215 229.474L233.993 238.539ZM316.181 54.2669L311.958 63.3316L311.958 63.3316L316.181 54.2669ZM238.15 94.4538C262.225 136.153 252.254 186.883 217.902 213.087L230.032 228.989C272.989 196.221 284.182 134.185 255.47 84.4538L238.15 94.4538ZM224.599 76.1573C229.677 81.5757 234.243 87.6868 238.15 94.4538L255.47 84.4538C250.794 76.3552 245.312 69.0118 239.193 62.4817L224.599 76.1573ZM316.33 54.3349C286.565 40.4695 253.041 44.0447 226.535 60.878L237.257 77.761C258.441 64.3077 284.758 61.6911 307.885 72.4644L316.33 54.3349ZM362.249 186.825C384.929 135.973 364.349 76.7037 316.33 54.3349L307.885 72.4644C345.231 89.8613 362.574 136.996 343.983 178.678L362.249 186.825ZM233.843 238.471C281.998 260.903 339.525 237.773 362.249 186.825L343.983 178.678C325.436 220.263 279.499 237.675 242.289 220.341L233.843 238.471ZM218.031 229.085C222.912 232.685 228.193 235.839 233.843 238.471L242.289 220.341C237.861 218.279 233.726 215.809 229.903 212.99L218.031 229.085ZM115.773 57.383C148.309 38.5987 189.134 44.3537 217.883 69.6476L231.094 54.6319C196.58 24.2658 146.491 16.5542 105.773 40.0625L115.773 57.383ZM86.6895 181.899C60.6491 136.796 74.4174 81.26 115.773 57.383L105.773 40.0625C53.9145 70.0033 38.3627 138.195 69.369 191.899L86.6895 181.899ZM209.066 218.97C167.71 242.847 112.73 227.003 86.6895 181.899L69.369 191.899C100.375 245.604 167.207 266.231 219.066 236.291L209.066 218.97ZM210.135 218.342C209.781 218.553 209.425 218.763 209.066 218.97L219.066 236.291C219.51 236.034 219.951 235.775 220.391 235.512L210.135 218.342ZM209.019 234.738C215.294 239.755 222.23 244.091 229.77 247.604L238.215 229.474C232.137 226.643 226.556 223.152 221.507 219.116L209.019 234.738ZM229.77 247.604C283.357 272.566 346.536 246.599 371.314 191.047L353.048 182.9C332.434 229.119 280.829 249.325 238.215 229.474L229.77 247.604ZM371.314 191.047C396.048 135.591 373.854 70.1011 320.403 45.2021L311.958 63.3316C354.709 83.2461 373.705 136.586 353.048 182.9L371.314 191.047ZM320.403 45.2021C286.416 29.3697 248.384 34.0601 218.916 53.8364L230.061 70.4431C254.166 54.2659 284.794 50.6778 311.958 63.3316L320.403 45.2021Z" fill="#D6AF57" mask="url(#path-10-inside-1_35_81)"/>
<path d="M48.4158 121.849L72.4158 116.849" stroke="#D6AF57" stroke-width="10"/>
<path d="M39.4158 147.849L72.4158 141.849" stroke="#D6AF57" stroke-width="10"/>
<path d="M44.1855 176.505L75.3681 166.111" stroke="#D6AF57" stroke-width="10"/>
<path d="M54.5798 205.089L87.0617 189.498" stroke="#D6AF57" stroke-width="10"/>
<path d="M81.3648 229.543L107.098 212.027" stroke="#D6AF57" stroke-width="10"/>
<path d="M115.646 245.367L139.033 231.075" stroke="#D6AF57" stroke-width="10"/>
</svg>
